<?xml version="1.0" standalone="no"?>
<!DOCTYPE svg PUBLIC "-//W3C//DTD SVG 20010904//EN"
 "http://www.w3.org/TR/2001/REC-SVG-20010904/DTD/svg10.dtd">
<svg version="1.0" xmlns="http://www.w3.org/2000/svg"
 width="200.000000pt" height="200.000000pt" viewBox="0 0 200.000000 200.000000"
 preserveAspectRatio="xMidYMid meet">
<metadata>
Created by potrace 1.16, written by Peter Selinger 2001-2019
</metadata>
<g transform="translate(0.000000,200.000000) scale(0.100000,-0.100000)"
fill="#000000" stroke="none">
<path d="M1740 1284 c-67 -77 -204 -204 -220 -204 -3 0 -42 23 -85 51 -224
142 -402 199 -628 199 -83 0 -235 -21 -259 -36 -4 -3 5 -25 20 -50 25 -40 30
-44 57 -39 17 3 94 9 172 12 132 5 148 3 232 -21 50 -14 121 -39 158 -56 68
-31 233 -130 233 -140 -1 -10 -197 -120 -261 -146 -35 -14 -66 -29 -69 -33 -3
-3 -14 -7 -25 -8 -11 0 -60 -9 -110 -18 -99 -19 -243 -16 -328 5 l-47 12 -39
-43 -39 -44 55 -17 c110 -33 222 -43 350 -30 193 20 343 76 531 199 l84 54 64
-57 c36 -31 102 -97 147 -145 45 -49 86 -89 91 -89 17 0 76 51 76 66 0 8 -63
79 -140 157 l-140 141 85 79 c47 43 112 112 145 152 l60 73 -42 31 c-23 17
-44 31 -47 31 -4 0 -40 -39 -81 -86z"/>
</g>
</svg>
