<?xml version="1.0" standalone="no"?>
<!DOCTYPE svg PUBLIC "-//W3C//DTD SVG 20010904//EN"
 "http://www.w3.org/TR/2001/REC-SVG-20010904/DTD/svg10.dtd">
<svg version="1.0" xmlns="http://www.w3.org/2000/svg"
 width="200.000000pt" height="200.000000pt" viewBox="0 0 200.000000 200.000000"
 preserveAspectRatio="xMidYMid meet">
<metadata>
Created by potrace 1.10, written by Peter Selinger 2001-2011
</metadata>
<g transform="translate(0.000000,200.000000) scale(0.050000,-0.050000)"
fill="#40e0d0" stroke="none">
<path d="M3496 2592 c-117 -133 -327 -337 -421 -410 -30 -23 -54 -14 -190 73
-952 611 -1820 556 -2643 -169 l-88 -77 148 -132 c767 -679 1653 -722 2575
-124 l166 108 114 -98 c134 -117 332 -323 411 -427 61 -82 83 -80 211 21 l48
39 -56 67 c-92 111 -315 341 -427 440 l-105 94 268 267 c339 340 338 338 230
416 -107 77 -89 83 -241 -88z m-1427 -201 c222 -60 772 -339 771 -391 -1 -19
-390 -236 -520 -289 -528 -214 -1052 -185 -1507 85 -161 96 -311 213 -293 229
179 159 585 345 880 402 101 20 552 -5 669 -36z"/>
</g>
</svg>
